<svg width="55" height="55" viewBox="0 0 55 55" fill="none" xmlns="http://www.w3.org/2000/svg">
<g clip-path="url(#clip0_2200_40)">
<path d="M4.49426 55H29.0938C29.3071 55 29.5122 54.9124 29.6639 54.7637L33.6665 50.7735L41.1816 51.7254L42.4832 54.2341C42.7325 54.7145 43.409 54.831 43.7958 54.4032L46.3556 51.571C46.498 51.4132 46.5725 51.2058 46.5627 50.9934L46.4283 48.1044C47.2176 47.5315 47.7626 46.6205 47.8874 45.6514L48.8755 37.9823C50.2748 38.6423 51.983 37.72 52.1821 36.1745L53.4577 26.2749C53.6866 24.4982 52.609 22.7394 50.9159 22.1469C51.2331 20.23 50.0693 18.3012 48.1164 17.8937L49.4417 7.3183C49.6421 5.71929 48.4528 4.19567 46.8523 3.99538L15.0989 0.0231417C13.4673 -0.18005 11.9738 0.977457 11.7697 2.60546C11.7676 2.622 11.766 2.63876 11.765 2.6554L11.2271 6.94768H4.49426C2.84982 6.94768 1.51178 8.2826 1.51178 9.92328V41.0268C1.54572 42.0812 3.08072 42.1045 3.12271 41.0268V9.92328C3.12271 9.17076 3.73798 8.55861 4.49426 8.55861H36.4955C37.2517 8.55861 37.867 9.17076 37.867 9.92328V43.8403H31.2708C29.6264 43.8403 28.2884 45.1752 28.2884 46.816V53.389H4.49426C3.73798 53.389 3.12271 52.7768 3.12271 52.0243V45.3173C3.12271 44.8723 2.76208 44.5118 2.31725 44.5118C1.87241 44.5118 1.51178 44.8723 1.51178 45.3173V52.0243C1.51178 53.6651 2.84971 55 4.49426 55ZM44.9379 50.7368L43.3786 52.462L42.3075 50.3977L42.8994 48.5029C43.5116 48.7636 44.1875 48.8496 44.8455 48.7526L44.9379 50.7368ZM51.4109 24.4118C51.7769 24.886 51.9364 25.4746 51.8598 26.0689L50.5843 35.9685C50.4682 36.8699 49.036 36.6631 49.1587 35.7832L49.4947 33.1763C49.6278 32.1433 48.0299 31.9381 47.8969 32.9706L46.2896 45.4455C46.1507 46.5226 45.1382 47.304 44.0611 47.1652C42.984 47.0265 42.2025 46.0137 42.3413 44.9367L44.7009 26.6237L48.6491 27.1324L48.4432 28.7307C48.3101 29.7636 49.9078 29.9693 50.0409 28.9365L50.7015 23.8099C50.9739 23.957 51.216 24.1593 51.4109 24.4118ZM49.3527 21.6719C49.1868 22.9595 49.0208 24.247 48.855 25.5345L44.9067 25.0258L45.4044 21.1631C45.4724 20.6358 45.7416 20.1666 46.1625 19.8417C46.5834 19.5168 47.1058 19.3754 47.6329 19.4432C48.7214 19.5837 49.4929 20.5835 49.3527 21.6719ZM36.4954 6.94768H12.8506L13.3681 2.81843C13.37 2.80382 13.3714 2.78933 13.3724 2.77461C13.481 2.04422 14.1587 1.52893 14.8989 1.62183L46.6521 5.59374C47.3916 5.68621 47.9359 6.37633 47.8431 7.11779L46.4885 17.9266C46.0186 18.0464 45.5737 18.2612 45.1782 18.5664C44.4166 19.1541 43.9295 20.0033 43.8067 20.9574L43.206 25.6188V25.619L40.7434 44.7308C40.6185 45.6998 40.9133 46.7203 41.5325 47.4755L40.7301 50.0444L35.1115 49.3327L39.2409 45.2162C39.3855 45.0534 39.4777 44.8688 39.4777 44.6457V9.92328C39.4778 8.2826 38.14 6.94768 36.4954 6.94768ZM31.2707 45.4512H36.7235L29.8993 52.2542V46.816C29.8992 46.0636 30.5145 45.4512 31.2707 45.4512Z" fill="black"/>
<path d="M34.6885 17.7707V12.3106C34.6885 11.8657 34.3279 11.5051 33.883 11.5051H6.99773C6.55289 11.5051 6.19226 11.8657 6.19226 12.3106V17.7707C6.19226 18.2156 6.55289 18.5762 6.99773 18.5762H33.883C34.3279 18.5762 34.6885 18.2156 34.6885 17.7707ZM33.0775 16.9652H7.80319V13.1161H33.0775V16.9652Z" fill="black"/>
<path d="M33.1218 22.6797H7.86776C6.80122 22.7166 6.80208 24.2541 7.86776 24.2906H33.1218C34.1883 24.2538 34.1876 22.7162 33.1218 22.6797Z" fill="black"/>
<path d="M33.1218 28.1572H16.4815C15.415 28.1942 15.4158 29.7316 16.4815 29.7682H33.1218C34.1884 29.7313 34.1876 28.1937 33.1218 28.1572Z" fill="black"/>
<path d="M33.9273 34.44C33.9273 33.995 33.5668 33.6345 33.1218 33.6345H16.4815C15.415 33.6715 15.4158 35.2089 16.4815 35.2454H33.1218C33.5668 35.2454 33.9273 34.8849 33.9273 34.44Z" fill="black"/>
<path d="M9.68686 35.1136C8.92231 35.1192 8.68357 35.0807 8.09601 34.6939C7.72442 34.4496 7.22503 34.5523 6.98028 34.9239C6.73574 35.2954 6.83863 35.7949 7.21021 36.0396C7.84621 36.4582 8.31617 36.6292 8.88687 36.6921C8.7276 38.3189 10.735 38.2127 10.4978 36.6122C11.671 36.2799 12.4238 35.2597 12.5942 34.253C12.8194 32.9217 12.1021 31.7183 10.8095 31.2585C10.158 31.0267 8.51979 30.6828 8.70322 29.7133C8.75456 29.4414 8.93574 29.1127 9.28982 29.0054C9.79619 28.8517 10.3486 28.9525 10.7284 29.2275C10.7284 29.2275 11.2694 29.9765 11.9788 29.319C12.6353 28.7104 11.8243 28.0468 11.8243 28.0468C11.5728 27.8134 11.1064 27.5257 10.4979 27.3913C10.6399 25.84 8.6884 25.9146 8.88698 27.4467C7.98507 27.702 7.29366 28.4973 7.12032 29.4137C6.95644 30.2804 7.23738 31.121 7.85373 31.6076C8.36042 32.0075 9.06042 32.346 10.2696 32.7762C11.0703 33.061 11.0512 33.7159 11.0059 33.9841C10.9144 34.5243 10.4627 35.1085 9.68686 35.1136Z" fill="black"/>
<path d="M7.86776 49.6683H22.9453C24.0119 49.6314 24.011 48.0939 22.9453 48.0574H7.86776C6.80122 48.0943 6.80208 49.6318 7.86776 49.6683Z" fill="black"/>
</g>
<defs>
<clipPath id="clip0_2200_40">
<rect width="55" height="55" fill="white"/>
</clipPath>
</defs>
</svg>
