<svg width="19" height="19" viewBox="0 0 19 19" fill="none" xmlns="http://www.w3.org/2000/svg">
<path d="M10.2974 13.2062C10.0653 13.4384 10.0653 13.8142 10.2974 14.0457C10.5296 14.2779 10.9054 14.2779 11.137 14.0457L15.2332 9.94889C15.3568 9.82536 15.4096 9.66091 15.4013 9.49938C15.4096 9.33729 15.3567 9.17343 15.2332 9.04993L11.137 4.95366C10.9054 4.7215 10.529 4.7215 10.2974 4.95366C10.0653 5.18582 10.0653 5.56166 10.2974 5.7932L13.4104 8.90622H0.59375C0.266 8.90625 0 9.17225 0 9.5C0 9.82775 0.266 10.0938 0.59375 10.0938H13.4104L10.2974 13.2062ZM16.625 1.1875H4.75C3.43841 1.1875 2.375 2.25091 2.375 3.5625V5.9375H3.5625V3.5625C3.5625 2.907 4.09391 2.375 4.75 2.375H16.625C17.2811 2.375 17.8125 2.907 17.8125 3.5625V15.4375C17.8125 16.093 17.2811 16.625 16.625 16.625H4.75C4.09391 16.625 3.5625 16.0936 3.5625 15.4375V13.0625H2.375V15.4375C2.375 16.7491 3.43841 17.8125 4.75 17.8125H16.625C17.9366 17.8125 19 16.7491 19 15.4375V3.5625C19 2.25091 17.9366 1.1875 16.625 1.1875Z" fill="white"/>
</svg>
