<svg width="252" height="68" viewBox="0 0 252 68" fill="none" xmlns="http://www.w3.org/2000/svg">
<path d="M53.274 66.5823H54.2482V63.3056C54.7542 64.0394 55.5386 64.6973 56.7531 64.6973C58.3345 64.6973 59.8779 63.4322 59.8779 61.2941C59.8779 59.1181 58.3218 57.8783 56.7531 57.8783C55.5512 57.8783 54.7795 58.5488 54.2482 59.3332V58.0175H53.274V66.5823ZM56.576 63.8243C55.3615 63.8243 54.2102 62.8122 54.2102 61.2941C54.2102 59.776 55.3615 58.7512 56.576 58.7512C57.8158 58.7512 58.8785 59.738 58.8785 61.2815C58.8785 62.8882 57.8411 63.8243 56.576 63.8243ZM65.4199 64.7099C67.3935 64.7099 68.8484 63.1412 68.8484 61.2941C68.8484 59.4217 67.4062 57.8783 65.4452 57.8783C63.4717 57.8783 62.0294 59.447 62.0294 61.2941C62.0294 63.1665 63.459 64.7099 65.4199 64.7099ZM65.4452 63.837C64.0663 63.837 63.0289 62.6984 63.0289 61.2941C63.0289 59.8898 64.003 58.7386 65.4199 58.7386C66.7989 58.7386 67.849 59.8898 67.849 61.2941C67.849 62.6984 66.8622 63.837 65.4452 63.837ZM72.7841 64.6087H73.6444L75.4155 59.447L77.1741 64.6087H78.0217L80.3242 58.0175H79.3121L77.5915 63.2677L75.8204 57.9922H75.0107L73.2522 63.2677L71.5316 58.0175H70.4942L72.7841 64.6087ZM82.9675 61.6863H88.1545C88.1671 61.5345 88.1671 61.4333 88.1671 61.3447C88.1671 59.4217 87.0538 57.8783 85.1182 57.8783C83.3091 57.8783 81.9807 59.3964 81.9807 61.2941C81.9807 63.3309 83.4482 64.7099 85.2447 64.7099C86.4845 64.7099 87.2815 64.2165 87.9394 63.4828L87.3321 62.9388C86.8008 63.4954 86.1682 63.8623 85.27 63.8623C84.1188 63.8623 83.1067 63.0653 82.9675 61.6863ZM82.9675 60.9019C83.1067 59.6368 83.9669 58.7006 85.0929 58.7006C86.3833 58.7006 87.0665 59.7127 87.1803 60.9019H82.9675ZM90.6315 64.5581H91.6057V61.952C91.6057 59.9784 92.7696 58.9536 94.1992 58.9536H94.2751V57.9036C93.0353 57.853 92.0864 58.6374 91.6057 59.7254V58.0175H90.6315V64.5581ZM96.8156 61.6863H102.003C102.015 61.5345 102.015 61.4333 102.015 61.3447C102.015 59.4217 100.902 57.8783 98.9663 57.8783C97.1572 57.8783 95.8288 59.3964 95.8288 61.2941C95.8288 63.3309 97.2963 64.7099 99.0928 64.7099C100.333 64.7099 101.13 64.2165 101.787 63.4828L101.18 62.9388C100.649 63.4954 100.016 63.8623 99.1181 63.8623C97.9668 63.8623 96.9547 63.0653 96.8156 61.6863ZM96.8156 60.9019C96.9547 59.6368 97.815 58.7006 98.941 58.7006C100.231 58.7006 100.915 59.7127 101.028 60.9019H96.8156ZM107.225 64.6973C108.427 64.6973 109.198 64.0268 109.73 63.2424V64.5581H110.704V55.3228H109.73V59.2699C109.224 58.5362 108.439 57.8783 107.225 57.8783C105.656 57.8783 104.1 59.1434 104.1 61.2815C104.1 63.4575 105.656 64.6973 107.225 64.6973ZM107.402 63.8243C106.162 63.8243 105.1 62.8375 105.1 61.2941C105.1 59.6874 106.137 58.7512 107.402 58.7512C108.617 58.7512 109.768 59.7633 109.768 61.2688C109.768 62.7996 108.617 63.8243 107.402 63.8243ZM121.671 64.6973C123.252 64.6973 124.796 63.4322 124.796 61.2941C124.796 59.1181 123.24 57.8783 121.671 57.8783C120.469 57.8783 119.697 58.5488 119.166 59.3332V55.3228H118.192V64.5581H119.166V63.3056C119.672 64.0394 120.456 64.6973 121.671 64.6973ZM121.494 63.8243C120.279 63.8243 119.128 62.8122 119.128 61.2941C119.128 59.776 120.279 58.7512 121.494 58.7512C122.734 58.7512 123.796 59.738 123.796 61.2815C123.796 62.8882 122.759 63.8243 121.494 63.8243ZM128.043 66.6202C129.03 66.6202 129.662 66.1268 130.219 64.7732L132.964 58.0175H131.927L129.827 63.4701L127.448 58.0175H126.373L129.346 64.5328C128.954 65.4563 128.587 65.76 128.005 65.76C127.587 65.76 127.296 65.6841 126.98 65.5196L126.651 66.2913C127.094 66.5064 127.499 66.6202 128.043 66.6202ZM144.092 64.7099C146.787 64.7099 148.622 62.5719 148.622 60.1302C148.622 57.6632 146.812 55.5505 144.118 55.5505C141.423 55.5505 139.589 57.6885 139.589 60.1302C139.589 62.5972 141.398 64.7099 144.092 64.7099ZM144.118 63.7864C142.094 63.7864 140.626 62.1417 140.626 60.1302C140.626 58.0934 142.068 56.474 144.092 56.474C146.117 56.474 147.584 58.1187 147.584 60.1302C147.584 62.167 146.142 63.7864 144.118 63.7864ZM151.691 64.5581H152.665V58.8777H154.727V58.0428H152.652V57.5114C152.652 56.5752 153.032 56.1198 153.791 56.1198C154.12 56.1198 154.386 56.183 154.74 56.2842V55.4366C154.424 55.3228 154.12 55.2722 153.664 55.2722C153.07 55.2722 152.589 55.4493 152.26 55.7782C151.893 56.1451 151.691 56.7144 151.691 57.4608V58.0301H150.793V58.8777H151.691V64.5581ZM157.095 64.5581H158.069V58.8777H160.132V58.0428H158.057V57.5114C158.057 56.5752 158.436 56.1198 159.195 56.1198C159.524 56.1198 159.79 56.183 160.144 56.2842V55.4366C159.828 55.3228 159.524 55.2722 159.069 55.2722C158.474 55.2722 157.994 55.4493 157.665 55.7782C157.298 56.1451 157.095 56.7144 157.095 57.4608V58.0301H156.197V58.8777H157.095V64.5581ZM170.961 64.7099C172.454 64.7099 173.694 64.09 174.516 63.3562V59.8266H170.86V60.7248H173.554V62.9261C172.947 63.4195 172.011 63.8117 170.999 63.8117C168.848 63.8117 167.494 62.2429 167.494 60.1302C167.494 58.1313 168.899 56.474 170.86 56.474C172.112 56.474 172.871 56.8915 173.554 57.4861L174.2 56.727C173.314 55.9806 172.39 55.5505 170.898 55.5505C168.241 55.5505 166.457 57.7012 166.457 60.1302C166.457 62.6857 168.178 64.7099 170.961 64.7099ZM177.365 64.5581H178.339V61.952C178.339 59.9784 179.503 58.9536 180.932 58.9536H181.008V57.9036C179.768 57.853 178.82 58.6374 178.339 59.7254V58.0175H177.365V64.5581ZM185.952 64.7099C187.926 64.7099 189.381 63.1412 189.381 61.2941C189.381 59.4217 187.939 57.8783 185.978 57.8783C184.004 57.8783 182.562 59.447 182.562 61.2941C182.562 63.1665 183.991 64.7099 185.952 64.7099ZM185.978 63.837C184.599 63.837 183.561 62.6984 183.561 61.2941C183.561 59.8898 184.535 58.7386 185.952 58.7386C187.331 58.7386 188.381 59.8898 188.381 61.2941C188.381 62.6984 187.395 63.837 185.978 63.837ZM194.308 64.6973C195.434 64.6973 196.105 64.128 196.548 63.4195V64.5581H197.509V58.0175H196.548V61.7622C196.548 62.9894 195.7 63.8117 194.587 63.8117C193.435 63.8117 192.778 63.0526 192.778 61.8381V58.0175H191.803V62.0785C191.803 63.6346 192.727 64.6973 194.308 64.6973ZM200.459 66.5823H201.434V63.3056C201.94 64.0394 202.724 64.6973 203.938 64.6973C205.52 64.6973 207.063 63.4322 207.063 61.2941C207.063 59.1181 205.507 57.8783 203.938 57.8783C202.737 57.8783 201.965 58.5488 201.434 59.3332V58.0175H200.459V66.5823ZM203.761 63.8243C202.547 63.8243 201.396 62.8122 201.396 61.2941C201.396 59.776 202.547 58.7512 203.761 58.7512C205.001 58.7512 206.064 59.738 206.064 61.2815C206.064 62.8882 205.026 63.8243 203.761 63.8243Z" fill="#F79900"/>
<path d="M3.18809 43.5193H9.03293V22.2274H19.5081V43.5193H25.3529V16.9518H3.18809V43.5193ZM41.8609 43.9747C48.1991 43.9747 52.9054 39.2305 52.9054 33.3857C52.9054 27.465 48.2371 22.7967 41.9368 22.7967C35.5986 22.7967 30.8924 27.5409 30.8924 33.3857C30.8924 39.3065 35.5606 43.9747 41.8609 43.9747ZM41.9368 39.0028C38.7487 39.0028 36.5854 36.384 36.5854 33.3857C36.5854 30.3115 38.559 27.7686 41.8609 27.7686C45.049 27.7686 47.2124 30.3874 47.2124 33.3857C47.2124 36.4599 45.2388 39.0028 41.9368 39.0028ZM63.6865 38.5853C64.939 35.587 65.1667 32.0194 65.2047 28.5656V28.1102H70.632V38.5853H63.6865ZM73.6304 43.5193V48.3014H78.4884L79.1716 38.5853H76.401V23.1762H59.7773V24.9221C59.7773 29.8181 59.5117 34.9418 57.8037 38.5853H55.6024V48.3014H60.4605L60.878 43.5193H73.6304ZM101.546 23.1762H83.063V43.5193H88.8319V28.1102H95.7774V43.5193H101.546V23.1762ZM126.408 23.1762H120.98L113.048 35.0557V23.1762H107.469V43.5193H112.896L120.828 31.6778V43.5193H126.408V23.1762Z" fill="white"/>
<path d="M181.863 23.3081C181.863 37.7304 180.724 38.9828 178.561 38.9828C178.295 38.9828 177.574 38.9069 177.346 38.869L176.967 43.5373C177.726 43.727 179.13 43.8788 179.889 43.8788C184.975 43.8788 187.29 41.7155 187.29 28.242H192.452V43.6511H198.221V23.3081H181.863ZM214.118 44.1066C220.456 44.1066 225.162 39.3624 225.162 33.5175C225.162 27.5968 220.494 22.9285 214.194 22.9285C207.855 22.9285 203.149 27.6727 203.149 33.5175C203.149 39.4383 207.817 44.1066 214.118 44.1066ZM214.194 39.1347C211.005 39.1347 208.842 36.5159 208.842 33.5175C208.842 30.4433 210.816 27.9004 214.118 27.9004C217.306 27.9004 219.469 30.5192 219.469 33.5175C219.469 36.5918 217.496 39.1347 214.194 39.1347ZM248.734 23.3081H242.965V31.1265H235.867V23.3081H230.098V43.6511H235.867V35.8707H242.965V43.6511H248.734V23.3081Z" fill="#F79900"/>
<path d="M165.915 47.8372C163.98 39.9771 161.679 35.7709 156.428 29.3356C152.112 32.8216 149.194 33.7242 143.205 33.8529C144.683 35.3675 146.368 35.6029 150.139 35.4662C147.346 42.6905 144.902 44.7378 138.528 44.9848C139.562 45.5643 139.997 45.9935 141.667 45.9922C149.442 50.8682 158.14 51.2636 165.915 47.8372Z" fill="#F79900"/>
<path d="M130.465 24.4957C132.493 -2.78429 164.532 -7.87663 176.908 12.2345H174.328L179.488 23.5277L162.072 34.3369L159.17 20.4624L164.007 30.6263L176.908 22.7211L168.361 5.13598C162.612 10.0486 160.299 12.4647 158.041 16.1065C158.117 13.7914 158.705 12.2661 160.298 9.3306L156.428 9.97593C154.469 10.4454 153.548 10.4047 152.074 9.97593C147.949 12.1847 146.269 13.7829 144.334 17.2358C141.376 22.1777 140.836 26.1574 141.915 35.4662V36.9182C142.56 42.5648 137.722 43.2101 135.303 39.8222C132.884 36.4342 130.865 31.8573 130.465 25.9477V24.4957Z" fill="#F79900"/>
<path d="M152.074 21.9144V19.3331C150.296 19.7588 149.01 21.9144 149.01 21.9144C150.107 21.2872 150.747 21.2726 152.074 21.9144Z" fill="#F79900"/>
</svg>
